<?xml version="1.0" encoding="UTF-8" standalone="no"?>
<svg xmlns="http://www.w3.org/2000/svg" viewBox="0 0 200 200">
    <!-- Background Circle -->
    <circle cx="100" cy="100" r="50" fill="royalblue"/>
    
    <!-- Outer Blue Circles -->
    <circle cx="100" cy="40" r="15" fill="deepskyblue"/>
    <circle cx="140" cy="60" r="15" fill="deepskyblue"/>
    <circle cx="160" cy="100" r="15" fill="deepskyblue"/>
    <circle cx="140" cy="140" r="15" fill="deepskyblue"/>
    <circle cx="100" cy="160" r="15" fill="deepskyblue"/>
    <circle cx="60" cy="140" r="15" fill="deepskyblue"/>
    <circle cx="40" cy="100" r="15" fill="deepskyblue"/>
    <circle cx="60" cy="60" r="15" fill="deepskyblue"/>
    
    <!-- Blue Arrows -->
    <line x1="100" y1="100" x2="100" y2="45" stroke="blue" stroke-width="2" marker-end="url(#arrow)"/>
    <line x1="100" y1="100" x2="135" y2="65" stroke="blue" stroke-width="2" marker-end="url(#arrow)"/>
    <line x1="100" y1="100" x2="155" y2="100" stroke="blue" stroke-width="2" marker-end="url(#arrow)"/>
    <line x1="100" y1="100" x2="135" y2="135" stroke="blue" stroke-width="2" marker-end="url(#arrow)"/>
    <line x1="100" y1="100" x2="100" y2="155" stroke="blue" stroke-width="2" marker-end="url(#arrow)"/>
    <line x1="100" y1="100" x2="65" y2="135" stroke="blue" stroke-width="2" marker-end="url(#arrow)"/>
    <line x1="100" y1="100" x2="45" y2="100" stroke="blue" stroke-width="2" marker-end="url(#arrow)"/>
    <line x1="100" y1="100" x2="65" y2="65" stroke="blue" stroke-width="2" marker-end="url(#arrow)"/>
    
    <!-- Arrowhead Marker -->
    <defs>
        <marker id="arrow" markerWidth="6" markerHeight="6" refX="5" refY="3" orient="auto-start-reverse">
            <path d="M0,0 L6,3 L0,6 Z" fill="blue"/>
        </marker>
    </defs>
</svg>

